<?xml version="1.0" encoding="UTF-8"?>
<svg width="1920" height="1080" viewBox="0 0 1920 1080" fill="none" xmlns="http://www.w3.org/2000/svg">
  <defs>
    <linearGradient id="hudChrome" x1="0" y1="0" x2="0" y2="1">
      <stop offset="0%" stop-color="#0E1C2D" stop-opacity="0.95" />
      <stop offset="100%" stop-color="#06101C" stop-opacity="0.95" />
    </linearGradient>
    <linearGradient id="accent" x1="0" y1="0" x2="1" y2="0">
      <stop offset="0%" stop-color="#32F5FF" stop-opacity="0.9" />
      <stop offset="100%" stop-color="#1B7FFF" stop-opacity="0.9" />
    </linearGradient>
    <radialGradient id="visorGlow" cx="0.5" cy="0.5" r="0.65">
      <stop offset="0%" stop-color="#15F2FF" stop-opacity="0.35" />
      <stop offset="70%" stop-color="#0E2A49" stop-opacity="0.05" />
      <stop offset="100%" stop-color="#000" stop-opacity="0" />
    </radialGradient>
    <filter id="softGlow" x="-10%" y="-10%" width="120%" height="120%" color-interpolation-filters="sRGB">
      <feGaussianBlur in="SourceGraphic" stdDeviation="6" result="blur" />
      <feMerge>
        <feMergeNode in="blur" />
        <feMergeNode in="SourceGraphic" />
      </feMerge>
    </filter>
  </defs>

  <!-- visor bloom -->
  <rect x="0" y="0" width="1920" height="1080" fill="url(#visorGlow)" opacity="0.55" />

  <!-- primary HUD frame -->
  <g opacity="0.92">
    <rect x="80" y="860" width="1760" height="180" rx="18" fill="url(#hudChrome)" stroke="#32F5FF" stroke-width="2" opacity="0.85" />
    <rect x="80" y="60" width="460" height="280" rx="18" fill="url(#hudChrome)" stroke="#1B7FFF" stroke-width="2" opacity="0.9" />
    <rect x="1380" y="60" width="460" height="280" rx="18" fill="url(#hudChrome)" stroke="#1B7FFF" stroke-width="2" opacity="0.9" />
  </g>

  <!-- center reticle -->
  <g filter="url(#softGlow)">
    <circle cx="960" cy="540" r="120" stroke="#32F5FF" stroke-width="2" stroke-dasharray="14 12" opacity="0.45" />
    <circle cx="960" cy="540" r="46" stroke="#32F5FF" stroke-width="2" opacity="0.65" />
    <line x1="960" y1="458" x2="960" y2="490" stroke="#32F5FF" stroke-width="3" opacity="0.85" />
    <line x1="960" y1="590" x2="960" y2="622" stroke="#32F5FF" stroke-width="3" opacity="0.85" />
    <line x1="878" y1="540" x2="910" y2="540" stroke="#32F5FF" stroke-width="3" opacity="0.85" />
    <line x1="1010" y1="540" x2="1042" y2="540" stroke="#32F5FF" stroke-width="3" opacity="0.85" />
    <path d="M960 420 L970 440 L950 440 Z" fill="#32F5FF" opacity="0.7" />
    <path d="M960 660 L950 640 L970 640 Z" fill="#32F5FF" opacity="0.7" />
  </g>

  <!-- velocity tape -->
  <g transform="translate(220 160)" opacity="0.92">
    <rect x="-100" y="-20" width="200" height="40" rx="12" fill="#06111F" opacity="0.75" />
    <rect x="-90" y="-12" width="180" height="24" rx="10" fill="#0F2745" opacity="0.9" />
    <rect x="-80" y="-6" width="160" height="12" rx="6" fill="url(#accent)" />
    <text x="0" y="38" text-anchor="middle" font-family="'Orbitron', 'Rajdhani', sans-serif" font-size="22" fill="#32F5FF">VELOCITY</text>
    <text x="0" y="6" text-anchor="middle" font-family="'Share Tech Mono', monospace" font-size="24" fill="#ECFEFF">342 M/S</text>
  </g>

  <!-- left telemetry card -->
  <g transform="translate(110 100)" fill="#ECFEFF" font-family="'Share Tech Mono', monospace">
    <text x="0" y="32" font-size="24" letter-spacing="4" fill="#32F5FF">MISSION</text>
    <text x="0" y="70" font-size="32">ARES GATE</text>
    <text x="0" y="112" font-size="20" fill="#6CD8FF">OBJECTIVE</text>
    <text x="0" y="142" font-size="24">Reach Relay Beacon</text>
    <line x1="0" y1="168" x2="360" y2="168" stroke="#143051" stroke-width="1.5" opacity="0.85" />
    <text x="0" y="202" font-size="20" fill="#6CD8FF">SUIT STATUS</text>
    <text x="0" y="232" font-size="26">Integrity 87%</text>
    <text x="0" y="268" font-size="22">Temp 14°C</text>
  </g>

  <!-- right telemetry card -->
  <g transform="translate(1460 100)" fill="#ECFEFF" font-family="'Share Tech Mono', monospace" text-anchor="end">
    <text x="360" y="32" font-size="24" letter-spacing="4" fill="#32F5FF">SCANNER</text>
    <text x="360" y="72" font-size="32">CONTACTS</text>
    <text x="360" y="112" font-size="20" fill="#6CD8FF">NEAREST</text>
    <text x="360" y="144" font-size="26">Sentinel Drone</text>
    <text x="360" y="180" font-size="22">Distance 420m</text>
    <line x1="0" y1="210" x2="360" y2="210" stroke="#143051" stroke-width="1.5" opacity="0.85" />
    <text x="360" y="244" font-size="20" fill="#6CD8FF">READINGS</text>
    <text x="360" y="276" font-size="26">Radiation 0.12 mSv</text>
  </g>

  <!-- lower status rail -->
  <g transform="translate(120 910)" font-family="'Share Tech Mono', monospace" fill="#ECFEFF">
    <text x="0" y="40" font-size="22" letter-spacing="4" fill="#32F5FF">PLAYER STATUS</text>
    <g transform="translate(0 60)">
      <rect x="0" y="-26" width="540" height="52" rx="14" fill="#071220" opacity="0.85" />
      <rect x="14" y="-14" width="320" height="20" rx="10" fill="#112A45" />
      <rect x="14" y="-14" width="260" height="20" rx="10" fill="url(#accent)" />
      <text x="360" y="4" text-anchor="start" font-size="22">HEALTH 76%</text>
    </g>
    <g transform="translate(600 60)">
      <rect x="0" y="-26" width="460" height="52" rx="14" fill="#071220" opacity="0.85" />
      <rect x="14" y="-14" width="280" height="20" rx="10" fill="#112A45" />
      <rect x="14" y="-14" width="210" height="20" rx="10" fill="#1B7FFF" opacity="0.85" />
      <text x="320" y="4" text-anchor="start" font-size="22">ENERGY 58%</text>
    </g>
    <g transform="translate(1180 60)">
      <rect x="0" y="-26" width="360" height="52" rx="14" fill="#071220" opacity="0.85" />
      <text x="36" y="4" font-size="22">AMMO 126</text>
      <text x="36" y="30" font-size="16" fill="#6CD8FF">Loaded: 36 | Reserve: 90</text>
    </g>
  </g>

  <!-- navigational ticks -->
  <g opacity="0.35" stroke="#32F5FF" stroke-width="1.5">
    <line x1="960" y1="110" x2="960" y2="150" />
    <line x1="960" y1="930" x2="960" y2="970" />
    <line x1="220" y1="540" x2="260" y2="540" />
    <line x1="1660" y1="540" x2="1700" y2="540" />
  </g>

  <!-- diagnostics readout -->
  <g transform="translate(920 906)" font-family="'Share Tech Mono', monospace" fill="#6CD8FF">
    <text x="40" y="28" font-size="20">SHIELD: NOMINAL</text>
    <text x="40" y="56" font-size="20">THRUST: 64%</text>
    <text x="40" y="84" font-size="20">SYS TEMP: 41°C</text>
  </g>

  <!-- timer chip -->
  <g transform="translate(820 60)">
    <rect x="-80" y="0" width="320" height="90" rx="20" fill="#06111F" opacity="0.85" stroke="#32F5FF" stroke-width="1.5" />
    <text x="80" y="36" text-anchor="middle" font-family="'Orbitron', 'Rajdhani', sans-serif" font-size="24" fill="#6CD8FF">MISSION TIMER</text>
    <text x="80" y="68" text-anchor="middle" font-family="'Share Tech Mono', monospace" font-size="32" fill="#ECFEFF">12:47</text>
  </g>
</svg>
