<svg width="1920" height="1080" viewBox="0 0 1920 1080" fill="none" xmlns="http://www.w3.org/2000/svg"><defs><linearGradient id="b" x1="0" y1="0" x2="0" y2="1"><stop offset="0%" stop-color="#0E1C2D" stop-opacity=".95"/><stop offset="100%" stop-color="#06101C" stop-opacity=".95"/></linearGradient><linearGradient id="d" x1="0" y1="0" x2="1" y2="0"><stop offset="0%" stop-color="#32F5FF" stop-opacity=".9"/><stop offset="100%" stop-color="#1B7FFF" stop-opacity=".9"/></linearGradient><radialGradient id="a" cx=".5" cy=".5" r=".65"><stop offset="0%" stop-color="#15F2FF" stop-opacity=".35"/><stop offset="70%" stop-color="#0E2A49" stop-opacity=".05"/><stop offset="100%" stop-opacity="0"/></radialGradient><filter id="c" x="-10%" y="-10%" width="120%" height="120%" color-interpolation-filters="sRGB"><feGaussianBlur in="SourceGraphic" stdDeviation="6" result="blur"/><feMerge><feMergeNode in="blur"/><feMergeNode in="SourceGraphic"/></feMerge></filter></defs><path fill="url(#a)" opacity=".55" d="M0 0h1920v1080H0z"/><g opacity=".92" fill="url(#b)" stroke-width="2"><rect x="80" y="860" width="1760" height="180" rx="18" stroke="#32F5FF" opacity=".85"/><rect x="80" y="60" width="460" height="380" rx="18" stroke="#1B7FFF" opacity=".9"/><rect x="1380" y="60" width="460" height="280" rx="18" stroke="#1B7FFF" opacity=".9"/></g><g filter="url(#c)"><circle cx="960" cy="540" r="120" stroke="#32F5FF" stroke-width="2" stroke-dasharray="14 12" opacity=".45"/><circle cx="960" cy="540" r="46" stroke="#32F5FF" stroke-width="2" opacity=".65"/><path stroke="#32F5FF" stroke-width="3" opacity=".85" d="M960 458v32m0 100v32m-82-82h32m100 0h32"/><path d="m960 420 10 20h-20Zm0 240-10-20h20Z" fill="#32F5FF" opacity=".7"/></g><g transform="translate(220 160)" opacity=".92"><rect x="-100" y="-20" width="200" height="40" rx="12" fill="#06111F" opacity=".75"/><rect x="-90" y="-12" width="180" height="24" rx="10" fill="#0F2745" opacity=".9"/><rect x="-80" y="-6" width="160" height="12" rx="6" fill="url(#d)"/><text x="-55" y="38" text-anchor="middle" font-family="'Orbitron', 'Rajdhani', sans-serif" font-size="22" fill="#32F5FF">VELOCITY</text><text y="6" text-anchor="middle" font-family="'Share Tech Mono', monospace" font-size="24" fill="#ECFEFF">342 M/S</text></g><g fill="#ECFEFF" font-family="'Share Tech Mono', monospace"><text y="32" font-size="24" letter-spacing="4" fill="#32F5FF" transform="translate(110 100)">MISSION</text><text y="130" font-size="27" transform="translate(110 100)">ARES GATE</text><text y="162" font-size="20" fill="#6CD8FF" transform="translate(110 100)">OBJECTIVE</text><text y="192" font-size="24" transform="translate(110 100)">Reach Relay Beacon</text><path stroke="#143051" stroke-width="1.5" opacity=".85" d="M110 268h360"/><text y="252" font-size="20" fill="#6CD8FF" transform="translate(110 100)">SUIT STATUS</text><text y="288" font-size="26" transform="translate(110 100)">Integrity 87%</text><text y="328" font-size="22" transform="translate(110 100)">Temp 14°C</text></g><g fill="#ECFEFF" font-family="'Share Tech Mono', monospace" text-anchor="end"><text x="360" y="32" font-size="24" letter-spacing="4" fill="#32F5FF" transform="translate(1460 100)">SCANNER</text><text x="360" y="72" font-size="32" transform="translate(1460 100)">CONTACTS</text><text x="360" y="112" font-size="20" fill="#6CD8FF" transform="translate(1460 100)">NEAREST</text><text x="360" y="144" font-size="26" transform="translate(1460 100)">Sentinel Drone</text><text x="360" y="180" font-size="22" transform="translate(1460 100)">Distance 420m</text><path stroke="#143051" stroke-width="1.5" opacity=".85" d="M1460 310h360"/><text x="360" y="244" font-size="20" fill="#6CD8FF" transform="translate(1460 100)">READINGS</text><text x="360" y="276" font-size="26" transform="translate(1460 100)">Radiation 0.12 mSv</text></g><g font-family="'Share Tech Mono', monospace" fill="#ECFEFF"><text x="10" y="20" font-size="22" letter-spacing="4" fill="#32F5FF" transform="translate(120 910)">PLAYER STATUS</text><g transform="translate(120 970)"><rect y="-26" width="540" height="52" rx="14" fill="#071220" opacity=".85"/><rect x="14" y="-14" width="320" height="20" rx="10" fill="#112A45"/><rect x="14" y="-14" width="260" height="20" rx="10" fill="url(#d)"/><text x="360" y="4" font-size="22">HEALTH 76%</text></g><g transform="translate(720 970)"><rect y="-26" width="460" height="52" rx="14" fill="#071220" opacity=".85"/><rect x="14" y="-14" width="280" height="20" rx="10" fill="#112A45"/><rect x="14" y="-14" width="210" height="20" rx="10" fill="#1B7FFF" opacity=".85"/><text x="320" y="4" font-size="22">ENERGY 58%</text></g><g transform="translate(1300 970)"><rect y="-20" width="360" height="52" rx="14" fill="#071220" opacity=".85"/><text x="36" y="4" font-size="22">AMMO 126</text><text x="36" y="30" font-size="16" fill="#6CD8FF">Loaded: 36 | Reserve: 90</text></g></g><path d="M960 110v40m0 780v40M220 540h40m1400 0h40" opacity=".35" stroke="#32F5FF" stroke-width="1.5"/><g font-family="'Share Tech Mono', monospace" fill="#6CD8FF" font-size="20"><text x="40" y="28" transform="translate(920 906)">SHIELD: NOMINAL</text><text x="40" y="56" transform="translate(920 906)">THRUST: 64%</text><text x="40" y="84" transform="translate(920 906)">SYS TEMP: 41°C</text></g><g transform="translate(820 60)"><rect x="-80" width="320" height="90" rx="20" fill="#06111F" opacity=".85" stroke="#32F5FF" stroke-width="1.5"/><text x="80" y="36" text-anchor="middle" font-family="'Orbitron', 'Rajdhani', sans-serif" font-size="24" fill="#6CD8FF">MISSION TIMER</text><text x="80" y="68" text-anchor="middle" font-family="'Share Tech Mono', monospace" font-size="32" fill="#ECFEFF">12:47</text></g></svg>