<?xml version="1.0" encoding="UTF-8"?>
<svg width="1024" height="768" viewBox="0 0 1024 768" fill="none" xmlns="http://www.w3.org/2000/svg">
  <defs>
    <radialGradient id="bgGlow" cx="50%" cy="50%" r="50%">
      <stop offset="0%" stop-color="#0A1E3A" stop-opacity="0.9" />
      <stop offset="70%" stop-color="#021126" stop-opacity="0.7" />
      <stop offset="100%" stop-color="#000" stop-opacity="0.4" />
    </radialGradient>
    <linearGradient id="panelGradient" x1="0%" y1="0%" x2="0%" y2="100%">
      <stop offset="0%" stop-color="#0F3C62" stop-opacity="0.9" />
      <stop offset="100%" stop-color="#071E36" stop-opacity="0.8" />
    </linearGradient>
    <filter id="glow" x="-50%" y="-50%" width="200%" height="200%">
      <feGaussianBlur stdDeviation="3" result="coloredBlur" />
      <feMerge>
        <feMergeNode in="coloredBlur" />
        <feMergeNode in="SourceGraphic" />
      </feMerge>
    </filter>
    <filter id="panelGlow" x="-50%" y="-50%" width="200%" height="200%">
      <feGaussianBlur in="SourceGraphic" stdDeviation="6" result="blur" />
      <feColorMatrix in="blur" type="matrix"
        values="0 0 0 0 0
                0 0 0 0 0.7
                0 0 0 0 1
                0 0 0 0.5 0" />
      <feMerge>
        <feMergeNode />
        <feMergeNode in="SourceGraphic" />
      </feMerge>
    </filter>
    <linearGradient id="energyGradient" x1="0%" y1="0%" x2="100%" y2="0%">
      <stop offset="0%" stop-color="#FFB347" />
      <stop offset="45%" stop-color="#FF6A3D" />
      <stop offset="100%" stop-color="#FF2F91" />
    </linearGradient>
    <linearGradient id="energyTrack" x1="0%" y1="0%" x2="100%" y2="0%">
      <stop offset="0%" stop-color="#11263B" stop-opacity="0.4" />
      <stop offset="50%" stop-color="#0A1B2C" stop-opacity="0.7" />
      <stop offset="100%" stop-color="#081220" stop-opacity="0.9" />
    </linearGradient>
    <filter id="energyGlow" x="-40%" y="-70%" width="180%" height="240%">
      <feGaussianBlur stdDeviation="8" result="energyBlur" />
      <feMerge>
        <feMergeNode in="energyBlur" />
        <feMergeNode in="SourceGraphic" />
      </feMerge>
    </filter>
    <path id="tick" d="M0 0 L6 -16" stroke="#6DE1FF" stroke-width="2" />
  </defs>

  <rect width="1024" height="768" fill="url(#bgGlow)" />

  <!-- Outer frame -->
  <rect x="40" y="40" width="944" height="688" rx="24" stroke="#1DD8FF" stroke-width="2" opacity="0.5" />
  <rect x="60" y="60" width="904" height="648" rx="20" stroke="#1DD8FF" stroke-width="1.5" opacity="0.35" />

  <!-- Corner accents -->
  <g stroke="#44C7FF" stroke-width="4" opacity="0.7">
    <path d="M120 70 H80 V110" />
    <path d="M904 70 H944 V110" />
    <path d="M120 698 H80 V658" />
    <path d="M904 698 H944 V658" />
  </g>

  <!-- Central targeting reticle -->
  <g transform="translate(512 384)" stroke="#71E9FF" stroke-width="2" filter="url(#glow)">
    <circle r="140" stroke-opacity="0.3" />
    <circle r="95" stroke-opacity="0.45" stroke-dasharray="12 16" />
    <circle r="40" stroke-opacity="0.8" />
    <line x1="-170" y1="0" x2="-110" y2="0" />
    <line x1="170" y1="0" x2="110" y2="0" />
    <line x1="0" y1="-170" x2="0" y2="-110" />
    <line x1="0" y1="170" x2="0" y2="110" />
    <path d="M-20 -6 H20 M-14 6 H14" />
    <path d="M0 -60 L8 -76 H-8 Z" fill="#71E9FF" fill-opacity="0.45" />
    <path d="M0 60 L-8 76 H8 Z" fill="#71E9FF" fill-opacity="0.45" />
    <path d="M-60 0 L-76 8 V-8 Z" fill="#71E9FF" fill-opacity="0.45" />
    <path d="M60 0 L76 -8 V8 Z" fill="#71E9FF" fill-opacity="0.45" />
  </g>

  <!-- Reticle ticks -->
  <g transform="translate(512 384)" opacity="0.6">
    <use href="#tick" transform="rotate(0) translate(0 -180)" />
    <use href="#tick" transform="rotate(45) translate(0 -180)" />
    <use href="#tick" transform="rotate(90) translate(0 -180)" />
    <use href="#tick" transform="rotate(135) translate(0 -180)" />
    <use href="#tick" transform="rotate(180) translate(0 -180)" />
    <use href="#tick" transform="rotate(225) translate(0 -180)" />
    <use href="#tick" transform="rotate(270) translate(0 -180)" />
    <use href="#tick" transform="rotate(315) translate(0 -180)" />
  </g>

  <!-- Velocity indicator -->
  <g transform="translate(170 384)">
    <rect x="-90" y="-140" width="180" height="280" rx="16" fill="url(#panelGradient)" fill-opacity="0.8" stroke="#1DD8FF" stroke-width="2" filter="url(#panelGlow)" />
    <text x="0" y="-100" fill="#8FF6FF" font-family="'Share Tech Mono', 'Orbitron', sans-serif" font-size="24" text-anchor="middle">VELOCITY</text>
    <text x="0" y="-70" fill="#54E2FF" font-family="'Share Tech Mono', monospace" font-size="18" text-anchor="middle">1 2 5 0</text>
    <line x1="-60" y1="-40" x2="60" y2="-40" stroke="#2BCBFF" stroke-width="2" stroke-dasharray="6 10" opacity="0.6" />
    <rect x="-60" y="-30" width="120" height="160" rx="12" fill="#041220" stroke="#1DD8FF" stroke-width="1.5" opacity="0.9" />
    <path d="M0 0 L30 60 H-30 Z" fill="#1DD8FF" fill-opacity="0.55" />
    <text x="0" y="120" fill="#54E2FF" font-family="'Share Tech Mono', monospace" font-size="16" text-anchor="middle">THRUST</text>
  </g>

  <!-- Shield indicator -->
  <g transform="translate(854 384)">
    <rect x="-90" y="-140" width="180" height="280" rx="16" fill="url(#panelGradient)" fill-opacity="0.8" stroke="#1DD8FF" stroke-width="2" filter="url(#panelGlow)" />
    <text x="0" y="-100" fill="#8FF6FF" font-family="'Share Tech Mono', 'Orbitron', sans-serif" font-size="24" text-anchor="middle">SHIELDS</text>
    <path d="M0 -70 A70 70 0 0 1 70 0" stroke="#54E2FF" stroke-width="10" stroke-linecap="round" fill="none" opacity="0.7" />
    <path d="M0 -70 A70 70 0 0 0 -70 0" stroke="#1DD8FF" stroke-width="10" stroke-linecap="round" fill="none" opacity="0.4" />
    <circle cx="0" cy="0" r="36" fill="#041220" stroke="#1DD8FF" stroke-width="2" />
    <text x="0" y="8" fill="#54E2FF" font-family="'Share Tech Mono', monospace" font-size="24" text-anchor="middle">84%</text>
    <text x="0" y="120" fill="#54E2FF" font-family="'Share Tech Mono', monospace" font-size="16" text-anchor="middle">CHARGE</text>
  </g>

  <!-- Energy core indicator -->
  <g transform="translate(512 546)">
    <rect x="-220" y="-70" width="440" height="140" rx="22" fill="url(#panelGradient)" fill-opacity="0.88" stroke="#1DD8FF" stroke-width="2" filter="url(#panelGlow)" />
    <g transform="translate(0 -12)" text-anchor="middle" font-family="'Share Tech Mono', 'Orbitron', sans-serif">
      <text x="0" y="-26" fill="#8FF6FF" font-size="26">ENERGY CORE</text>
      <text x="0" y="0" fill="#54E2FF" font-size="18" opacity="0.85">FUSION REACTOR STATUS</text>
    </g>
    <rect x="-180" y="20" width="360" height="24" rx="12" fill="url(#energyTrack)" stroke="#1DD8FF" stroke-width="1.5" opacity="0.9" />
    <rect x="-178" y="22" width="292" height="20" rx="10" fill="url(#energyGradient)" filter="url(#energyGlow)" />
    <g transform="translate(-194 32)" fill="#54E2FF" font-family="'Share Tech Mono', monospace" font-size="14" text-anchor="start" opacity="0.8">
      <text x="0" y="0">0%</text>
    </g>
    <g transform="translate(214 32)" fill="#54E2FF" font-family="'Share Tech Mono', monospace" font-size="14" text-anchor="end" opacity="0.8">
      <text x="0" y="0">100%</text>
    </g>
    <g transform="translate(0 60)" fill="#FFB347" font-family="'Share Tech Mono', monospace" font-size="20" text-anchor="middle">
      <text x="0" y="0">CURRENT OUTPUT: 81%</text>
    </g>
    <g stroke="#FF6A3D" stroke-width="2" opacity="0.6" transform="translate(0 20)">
      <line x1="-140" y1="0" x2="-140" y2="24" />
      <line x1="-70" y1="0" x2="-70" y2="24" />
      <line x1="0" y1="0" x2="0" y2="24" />
      <line x1="70" y1="0" x2="70" y2="24" />
      <line x1="140" y1="0" x2="140" y2="24" />
    </g>
  </g>

  <!-- Lower status bar -->
  <g transform="translate(512 660)">
    <rect x="-260" y="-40" width="520" height="80" rx="20" fill="url(#panelGradient)" fill-opacity="0.85" stroke="#1DD8FF" stroke-width="2" filter="url(#panelGlow)" />
    <g transform="translate(-220 0)" fill="#54E2FF" font-family="'Share Tech Mono', monospace" font-size="18">
      <text x="0" y="-4">NAV</text>
      <text x="0" y="24">SYS</text>
    </g>
    <g transform="translate(-150 -10)" stroke="#2BCBFF" stroke-width="2">
      <line x1="0" y1="0" x2="220" y2="0" stroke-dasharray="8 12" />
      <line x1="0" y1="24" x2="180" y2="24" stroke-dasharray="6 10" opacity="0.5" />
    </g>
    <g transform="translate(120 0)" fill="#8FF6FF" font-family="'Share Tech Mono', monospace" font-size="18" text-anchor="middle">
      <text x="0" y="-4">OBJ: SIGMA RELAY</text>
      <text x="0" y="24">ETA 00:02:16</text>
    </g>
  </g>

  <!-- Upper status bar -->
  <g transform="translate(512 118)">
    <rect x="-320" y="-40" width="640" height="80" rx="20" fill="url(#panelGradient)" fill-opacity="0.7" stroke="#1DD8FF" stroke-width="2" filter="url(#panelGlow)" />
    <g transform="translate(-280 0)" fill="#54E2FF" font-family="'Share Tech Mono', monospace" font-size="18">
      <text x="0" y="-6">SCANNER</text>
      <text x="0" y="22">CALIB</text>
    </g>
    <g transform="translate(-210 0)" stroke="#2BCBFF" stroke-width="2" opacity="0.6">
      <rect x="0" y="-20" width="140" height="40" rx="8" />
      <line x1="16" y1="-20" x2="16" y2="20" />
      <line x1="48" y1="-20" x2="48" y2="20" />
      <line x1="80" y1="-20" x2="80" y2="20" />
      <line x1="112" y1="-20" x2="112" y2="20" />
    </g>
    <g transform="translate(-20 0)" fill="#8FF6FF" font-family="'Share Tech Mono', monospace" font-size="18" text-anchor="middle">
      <text x="0" y="-6">SECTOR 7</text>
      <text x="0" y="22">COSMOS GRID</text>
    </g>
    <g transform="translate(220 0)" fill="#54E2FF" font-family="'Share Tech Mono', monospace" font-size="18" text-anchor="middle">
      <text x="0" y="-6">SIGNAL</text>
      <text x="0" y="22">92%</text>
    </g>
  </g>

  <!-- Ambient circuitry lines -->
  <g stroke="#0F7FBF" stroke-width="1.5" opacity="0.3">
    <path d="M72 200 H200 V240 H280" />
    <path d="M952 220 H824 V260 H720" />
    <path d="M200 552 H320 V592 H412" />
    <path d="M824 552 H704 V512 H612" />
  </g>

  <!-- Dynamic text clusters -->
  <g fill="#44C7FF" font-family="'Share Tech Mono', monospace" font-size="16" opacity="0.85">
    <text x="180" y="220">SYS: NOMINAL</text>
    <text x="190" y="248">TEMP: 236K</text>
    <text x="820" y="230" text-anchor="end">RADAR: ACTIVE</text>
    <text x="810" y="258" text-anchor="end">DRONES: 02</text>
    <text x="512" y="252" text-anchor="middle">TARGET LOCK: 87%</text>
  </g>

  <!-- Crosshair floating data -->
  <g transform="translate(512 384)" fill="#54E2FF" font-family="'Share Tech Mono', monospace" font-size="16" text-anchor="middle" opacity="0.85">
    <text x="0" y="-190">RANGE 12.6 KM</text>
    <text x="0" y="210">REL VEL -32 M/S</text>
  </g>
</svg>
