<svg width="128" height="96" viewBox="0 0 128 96" fill="none" xmlns="http://www.w3.org/2000/svg">
<defs>
<linearGradient id="station" x1="0" y1="0" x2="0" y2="1">
<stop offset="0%" stop-color="#C0C0C0"/>
<stop offset="100%" stop-color="#808080"/>
</linearGradient>
<radialGradient id="glow" cx="0.5" cy="0.5" r="0.8">
<stop offset="0%" stop-color="#00FFFF"/>
<stop offset="100%" stop-color="#0080FF"/>
</radialGradient>
</defs>

<!-- Central hub -->
<circle cx="64" cy="48" r="20" fill="url(#station)" stroke="#606060" stroke-width="2"/>

<!-- Solar panels -->
<rect x="8" y="40" width="24" height="16" fill="#2F4F4F" stroke="#1C1C1C" stroke-width="1"/>
<rect x="96" y="40" width="24" height="16" fill="#2F4F4F" stroke="#1C1C1C" stroke-width="1"/>
<rect x="40" y="8" width="16" height="24" fill="#2F4F4F" stroke="#1C1C1C" stroke-width="1"/>
<rect x="72" y="8" width="16" height="24" fill="#2F4F4F" stroke="#1C1C1C" stroke-width="1"/>
<rect x="40" y="64" width="16" height="24" fill="#2F4F4F" stroke="#1C1C1C" stroke-width="1"/>
<rect x="72" y="64" width="16" height="24" fill="#2F4F4F" stroke="#1C1C1C" stroke-width="1"/>

<!-- Docking ports -->
<rect x="44" y="28" width="4" height="8" fill="#FF4500"/>
<rect x="80" y="28" width="4" height="8" fill="#FF4500"/>
<rect x="44" y="60" width="4" height="8" fill="#FF4500"/>
<rect x="80" y="60" width="4" height="8" fill="#FF4500"/>
<rect x="28" y="44" width="8" height="4" fill="#FF4500"/>
<rect x="92" y="44" width="8" height="4" fill="#FF4500"/>

<!-- Navigation lights -->
<circle cx="64" cy="20" r="2" fill="url(#glow)"/>
<circle cx="64" cy="76" r="2" fill="url(#glow)"/>
<circle cx="20" cy="48" r="2" fill="url(#glow)"/>
<circle cx="108" cy="48" r="2" fill="url(#glow)"/>
</svg>